<?xml version="1.0" encoding="utf-8"?>
<!-- Generator: Adobe Illustrator 26.0.1, SVG Export Plug-In . SVG Version: 6.00 Build 0)  -->
<svg version="1.1" id="Layer_1" xmlns="http://www.w3.org/2000/svg" xmlns:xlink="http://www.w3.org/1999/xlink" x="0px" y="0px"
	 viewBox="0 0 595.28 954.5" style="enable-background:new 0 0 595.28 954.5;" xml:space="preserve">
<style type="text/css">
	.st0{fill:#8A69F8;}
	.st1{fill:#2D00F7;}
	.st2{fill:url(#SVGID_1_);}
	.st3{fill:url(#SVGID_00000033366238146892302400000017482025921158067123_);}
	.st4{fill:url(#SVGID_00000100350678499393585420000017631075463385162115_);}
	.st5{fill:url(#SVGID_00000147212470356865624690000017926728638750696326_);}
	.st6{fill:url(#SVGID_00000173881364612138580600000013676770082795823276_);}
	.st7{fill:url(#SVGID_00000057826514381561614400000018204354944364193942_);}
	.st8{fill:url(#SVGID_00000010309307875363914640000009304730803135151274_);}
	.st9{fill:url(#SVGID_00000005982587944492662260000004089161786683416451_);}
	.st10{fill:none;stroke:#FFFFFF;stroke-miterlimit:10;}
	.st11{fill:#F5E3FF;}
	.st12{fill:#9C36FF;}
	.st13{font-family:'Poppins-Black';}
	.st14{font-size:33px;}
	.st15{fill:#C00CFF;}
	.st16{fill:#EFA1EC;}
	.st17{fill:#CC66FF;}
	.st18{fill:url(#SVGID_00000152241767752064601240000000537273661694474940_);}
	.st19{fill:url(#SVGID_00000086664965871312975210000003187796458628968880_);}
	.st20{fill:url(#SVGID_00000144317830081714026210000009703440195324465793_);}
	.st21{fill:url(#SVGID_00000054266748949068503140000010754026425752241072_);}
	.st22{fill:url(#SVGID_00000096768311018727075370000000985977251712099502_);}
	.st23{fill:url(#SVGID_00000166658556917600933450000013075160275467030451_);}
	.st24{fill:url(#SVGID_00000054969727264809379970000000754762298860677791_);}
	.st25{fill:#DCB4F9;}
	.st26{fill:#D0A4F7;}
	.st27{fill:url(#SVGID_00000099664331515574448870000006656430776720221848_);}
	.st28{fill:url(#SVGID_00000050653090648274447140000017065531835843359878_);}
	.st29{fill:url(#SVGID_00000175289196942995870830000002698879468255045791_);}
	.st30{fill:url(#SVGID_00000114066828017830050560000006093243425098117268_);}
	.st31{fill:#E9D93D;}
	.st32{fill:#1D1D1B;}
	.st33{fill:#FFFFFF;}
	.st34{fill:url(#SVGID_00000032635301865131893740000004602802248239015570_);}
	.st35{fill:url(#SVGID_00000165213051897235393430000002951426132576940163_);}
	.st36{fill:url(#SVGID_00000132773012468282766160000012209799992254959517_);}
	.st37{fill:#1D1D1B;stroke:#FFFFFF;stroke-miterlimit:10;}
	.st38{fill:#2019BA;}
	.st39{fill:none;stroke:#1D1D1B;stroke-width:0.5;stroke-miterlimit:10;}
	.st40{fill:#4CC9F0;}
	.st41{fill:#8A7CFA;}
	.st42{fill:#F6E3FF;}
	.st43{fill:url(#SVGID_00000152960463581594771320000004646110995924355227_);}
	.st44{fill:url(#SVGID_00000036233506853948395830000014282942376206827942_);}
	.st45{fill:url(#SVGID_00000160189160383135990170000008378092801850153348_);}
	.st46{fill:url(#SVGID_00000112604375329449395270000007883120304075230344_);}
</style>
<rect x="0" y="-347.85" class="st1" width="595.28" height="385.85"/>
<path class="st10" d="M551.82,8.65h-40.05c-17.32,0-31.36-14.04-31.36-31.36v-40.05c0-17.32,14.04-31.36,31.36-31.36h40.05
	c17.32,0,31.36,14.04,31.36,31.36v40.05C583.18-5.39,569.14,8.65,551.82,8.65z"/>
<path class="st10" d="M544.61,15.2h-40.05c-17.32,0-31.36-14.04-31.36-31.36v-40.05c0-17.32,14.04-31.36,31.36-31.36h40.05
	c17.32,0,31.36,14.04,31.36,31.36v40.05C575.98,1.16,561.93,15.2,544.61,15.2z"/>
<path class="st10" d="M538.08,21.65h-40.05c-17.32,0-31.36-14.04-31.36-31.36v-40.05c0-17.32,14.04-31.36,31.36-31.36h40.05
	c17.32,0,31.36,14.04,31.36,31.36v40.05C569.44,7.61,555.4,21.65,538.08,21.65z"/>
<rect x="0" y="38" class="st11" width="595.28" height="916.5"/>
<text transform="matrix(1 0 0 1 242.3459 108.6559)" class="st12 st13 st14">LOGO</text>
<rect y="295.12" class="st15" width="297.64" height="220.13"/>
<rect x="297.64" y="295.12" class="st12" width="297.64" height="220.13"/>
<rect y="515.25" class="st16" width="297.64" height="220.13"/>
<g>
	<g>
		<path class="st17" d="M206.16,162.35l-0.01-1.76l-37.8,0.3l-1.59,0.01c-7.89,0.06-14.24,6.44-14.18,14.24v0l0.12,14.76l0.12,14.44
			l0.24,29.2h0c8.77-0.07,15.82-7.15,15.75-15.82l-0.11-13.5l10.48-0.08c8.07-0.06,14.56-6.58,14.49-14.56v0l-25.09,0.2l-0.12-14.76
			l25.28-0.2C200.66,174.76,206.21,169.18,206.16,162.35z"/>
		<linearGradient id="SVGID_1_" gradientUnits="userSpaceOnUse" x1="168.6418" y1="168.0661" x2="206.1584" y2="168.0661">
			<stop  offset="0" style="stop-color:#9933FF"/>
			<stop  offset="1" style="stop-color:#CC66FF"/>
		</linearGradient>
		<path class="st2" d="M191.8,175.24h-23.16v0c0-7.93,6.43-14.35,14.35-14.35h23.16v0C206.16,168.82,199.73,175.24,191.8,175.24z"/>
		
			<linearGradient id="SVGID_00000000903475544405411670000004155185135921233074_" gradientUnits="userSpaceOnUse" x1="168.6418" y1="197.0577" x2="193.1999" y2="197.0577">
			<stop  offset="0" style="stop-color:#9933FF"/>
			<stop  offset="1" style="stop-color:#CC66FF"/>
		</linearGradient>
		<path style="fill:url(#SVGID_00000000903475544405411670000004155185135921233074_);" d="M178.85,204.23h-10.2v0
			c0-7.93,6.43-14.35,14.35-14.35h10.2v0C193.2,197.81,186.77,204.23,178.85,204.23z"/>
	</g>
	
		<linearGradient id="SVGID_00000060718188068413305610000015812929151499403407_" gradientUnits="userSpaceOnUse" x1="209.2778" y1="196.5045" x2="232.2299" y2="196.5045">
		<stop  offset="0" style="stop-color:#CC66FF"/>
		<stop  offset="1" style="stop-color:#9933FF"/>
	</linearGradient>
	<path style="fill:url(#SVGID_00000060718188068413305610000015812929151499403407_);" d="M209.28,160.93L209.28,160.93
		c5.91,0,10.7,4.73,10.7,10.57v45.36c0,2.51,0.39,4.13,1.17,4.87c0.78,0.74,1.75,1.11,2.92,1.11c1.23,0,2.45-0.16,3.65-0.48h0
		c1.61-0.43,3.24,0.59,3.54,2.2l0.98,5.2c-1.56,0.64-3.4,1.19-5.54,1.63c-2.14,0.45-4.05,0.67-5.74,0.67c-3.7,0-6.56-1.01-8.61-3.04
		c-2.04-2.02-3.06-4.84-3.06-8.44V160.93z"/>
	
		<linearGradient id="SVGID_00000079448302005131492850000007286422571855469190_" gradientUnits="userSpaceOnUse" x1="234.7579" y1="205.1692" x2="283.191" y2="205.1692">
		<stop  offset="0" style="stop-color:#CC66FF"/>
		<stop  offset="1" style="stop-color:#9933FF"/>
	</linearGradient>
	<path style="fill:url(#SVGID_00000079448302005131492850000007286422571855469190_);" d="M234.76,215.45
		c0-3.18,0.92-5.95,2.77-8.34c1.85-2.38,4.41-4.22,7.68-5.52c3.27-1.3,7.02-1.95,11.23-1.95c2.27,0,4.57,0.18,6.9,0.53
		c2.33,0.35,4.44,0.85,6.32,1.49v-3.15c0-3.47-1.07-6.18-3.21-8.14c-2.14-1.96-5.22-2.93-9.24-2.93c-2.85,0-5.54,0.48-8.07,1.44
		c-0.52,0.2-1.04,0.41-1.57,0.65c-3.77,1.68-8.21,0.16-10.01-3.53l0,0c3.24-2.18,6.58-3.83,10.02-4.95
		c3.44-1.12,7.03-1.68,10.8-1.68c6.81,0,12.16,1.76,16.05,5.28c3.89,3.52,5.84,8.51,5.84,14.97v18.54c0,1.2,0.23,2.06,0.68,2.57
		c0.45,0.51,1.2,0.79,2.24,0.85v6.06c0,1.45-1.12,2.65-2.58,2.78l0,0c-0.75,0.06-1.38,0.13-1.9,0.19c-2.33-0.06-4.08-0.64-5.25-1.73
		c-1.17-1.09-1.85-2.37-2.04-3.85l-0.29-2.88c-2.14,2.82-4.94,5-8.41,6.54c-3.47,1.54-6.95,2.31-10.45,2.31
		c-3.37,0-6.39-0.68-9.04-2.05c-2.66-1.36-4.73-3.22-6.22-5.57C235.5,221.01,234.76,218.38,234.76,215.45z M267.14,218.56
		C267.14,218.56,267.14,218.56,267.14,218.56c0.72-0.89,1.31-1.73,1.8-2.55c0.49-0.82,0.73-1.58,0.73-2.27v-5.58
		c-1.82-0.69-3.73-1.21-5.74-1.56c-2.01-0.34-3.96-0.52-5.84-0.52c-3.96,0-7.15,0.76-9.58,2.27s-3.65,3.59-3.65,6.24
		c0,1.45,0.4,2.82,1.22,4.11c0.81,1.29,1.98,2.36,3.5,3.21c1.52,0.85,3.39,1.28,5.59,1.28c2.4,0,4.67-0.46,6.81-1.37
		C264.13,220.91,265.85,219.82,267.14,218.56z"/>
	
		<linearGradient id="SVGID_00000015355697187517554290000014619356371201031055_" gradientUnits="userSpaceOnUse" x1="293.3053" y1="204.6884" x2="338.9184" y2="204.6884">
		<stop  offset="0" style="stop-color:#CC66FF"/>
		<stop  offset="1" style="stop-color:#9933FF"/>
	</linearGradient>
	<path style="fill:url(#SVGID_00000015355697187517554290000014619356371201031055_);" d="M328.32,230.02L328.32,230.02v-27.84
		c0-4.69-0.78-8.09-2.33-10.21c-1.56-2.12-3.83-3.18-6.81-3.18c-2.08,0-4.13,0.52-6.18,1.56c-2.04,1.04-3.86,2.41-5.45,4.11
		c-1.59,1.7-2.77,3.69-3.55,5.96v19.04c0,5.84-4.79,10.58-10.7,10.58l0,0v-40.28c0-5.31,4.35-9.61,9.73-9.61l0,0v9.99
		c1.3-2.22,2.98-4.13,5.06-5.71c2.07-1.59,4.44-2.82,7.1-3.71c2.66-0.89,5.48-1.33,8.46-1.33c3.05,0,5.58,0.54,7.59,1.62
		c2.01,1.08,3.57,2.56,4.67,4.43c1.1,1.87,1.88,4.03,2.33,6.47c0.45,2.45,0.68,5.03,0.68,7.76v19.9
		C338.92,225.33,334.17,230.02,328.32,230.02z"/>
	
		<linearGradient id="SVGID_00000101077862846751220280000002742077314502780800_" gradientUnits="userSpaceOnUse" x1="348.0588" y1="205.1692" x2="396.7829" y2="205.1692">
		<stop  offset="0" style="stop-color:#CC66FF"/>
		<stop  offset="1" style="stop-color:#9933FF"/>
	</linearGradient>
	<path style="fill:url(#SVGID_00000101077862846751220280000002742077314502780800_);" d="M374.42,230.98
		c-3.96,0-7.54-0.68-10.75-2.05c-3.21-1.36-5.98-3.27-8.32-5.71c-2.33-2.44-4.13-5.22-5.4-8.33c-1.26-3.11-1.9-6.38-1.9-9.81
		c0-4.7,1.07-9,3.21-12.91c2.14-3.91,5.2-7.02,9.19-9.33c3.99-2.32,8.64-3.48,13.96-3.48c5.19,0,9.71,1.14,13.57,3.41
		c3.86,2.28,6.73,5.3,8.61,9.08l-0.85,0.26c-4.87,1.47-10.06,0.64-14.46-1.9c-0.02-0.01-0.04-0.02-0.06-0.04
		c-2.08-1.18-4.41-1.78-7-1.78c-2.85,0-5.43,0.71-7.73,2.13c-2.3,1.42-4.12,3.38-5.45,5.88c-1.33,2.5-1.99,5.39-1.99,8.67
		c0,3.22,0.68,6.1,2.04,8.63c1.36,2.53,3.21,4.53,5.54,6.02c2.33,1.49,4.89,2.23,7.68,2.23c1.75,0,3.44-0.3,5.06-0.91
		c1.62-0.61,3.06-1.46,4.33-2.55l0.04-0.03c2.25-1.94,5.36-2.6,8.21-1.73l4.83,1.47c-1.1,2.44-2.72,4.61-4.86,6.54
		c-2.14,1.92-4.7,3.45-7.68,4.57C381.25,230.42,377.98,230.98,374.42,230.98z"/>
	
		<linearGradient id="SVGID_00000060006823918334455710000016925102765077195190_" gradientUnits="userSpaceOnUse" x1="401.9383" y1="205.1692" x2="454.3581" y2="205.1692">
		<stop  offset="0" style="stop-color:#CC66FF"/>
		<stop  offset="1" style="stop-color:#9933FF"/>
	</linearGradient>
	<path style="fill:url(#SVGID_00000060006823918334455710000016925102765077195190_);" d="M428.29,230.98
		c-4.02,0-7.62-0.69-10.8-2.05c-3.18-1.37-5.93-3.24-8.27-5.63c-2.33-2.39-4.13-5.12-5.4-8.21s-1.9-6.34-1.9-9.78
		c0-4.75,1.1-9.1,3.31-13.03c2.2-3.93,5.3-7.07,9.29-9.41s8.57-3.52,13.76-3.52c5.38,0,10,1.19,13.86,3.57
		c3.86,2.38,6.86,5.5,9,9.38c2.14,3.87,3.21,8.03,3.21,12.47c0,0.76-0.03,1.48-0.1,2.14c0,0.01,0,0.01,0,0.02
		c-0.09,0.88-0.84,1.55-1.74,1.55h-39.3c0.32,2.97,1.2,5.55,2.63,7.73c1.43,2.18,3.27,3.89,5.54,5.12c2.27,1.23,4.67,1.85,7.2,1.85
		c2.92,0,5.66-0.7,8.22-2.11c0.5-0.28,0.98-0.57,1.42-0.88c3.73-2.65,8.52-3.35,12.93-2.1l0,0c-1.1,2.44-2.79,4.63-5.06,6.59
		c-2.27,1.96-4.91,3.49-7.93,4.61C435.15,230.42,431.86,230.98,428.29,230.98z M413.03,201.56h30.73c-0.26-2.89-1.09-5.4-2.48-7.54
		c-1.39-2.14-3.23-3.82-5.5-5.04c-2.27-1.23-4.73-1.84-7.39-1.84c-2.72,0-5.2,0.61-7.44,1.84c-2.24,1.23-4.07,2.91-5.49,5.04
		C414.03,196.16,413.22,198.67,413.03,201.56z"/>
</g>
<g>
	<g>
		<path class="st25" d="M521.32,475.93l0-0.34l-6.43,0.06l-0.27,0c-1.34,0.01-2.42,1.26-2.41,2.78l0,0l0.02,2.88l0.02,2.82l0.04,5.7
			l0,0c1.49-0.01,2.69-1.4,2.68-3.09l-0.02-2.64l1.78-0.02c1.37-0.01,2.48-1.29,2.47-2.84l0,0l-4.27,0.04l-0.02-2.88l4.3-0.04
			C520.39,478.35,521.33,477.26,521.32,475.93z"/>
		<path class="st25" d="M518.52,478.44h-3.58l0,0c0-1.55,1.25-2.8,2.8-2.8h3.58l0,0C521.32,477.19,520.07,478.44,518.52,478.44z"/>
		<path class="st25" d="M516.32,484.1h-1.38l0,0c0-1.55,1.25-2.8,2.8-2.8h1.38l0,0C519.12,482.85,517.86,484.1,516.32,484.1z"/>
	</g>
	<path class="st25" d="M521.85,475.65L521.85,475.65c1.01,0,1.82,0.92,1.82,2.06v8.86c0,0.49,0.07,0.81,0.2,0.95
		c0.13,0.14,0.3,0.22,0.5,0.22c0.21,0,0.42-0.03,0.62-0.09l0,0c0.27-0.08,0.55,0.11,0.6,0.43l0.17,1.02
		c-0.26,0.13-0.58,0.23-0.94,0.32c-0.36,0.09-0.69,0.13-0.98,0.13c-0.63,0-1.12-0.2-1.46-0.59c-0.35-0.4-0.52-0.94-0.52-1.65V475.65
		z"/>
	<path class="st25" d="M526.19,486.3c0-0.62,0.16-1.16,0.47-1.63c0.31-0.46,0.75-0.82,1.31-1.08c0.56-0.25,1.19-0.38,1.91-0.38
		c0.39,0,0.78,0.03,1.17,0.1c0.4,0.07,0.76,0.17,1.08,0.29v-0.62c0-0.68-0.18-1.21-0.55-1.59c-0.36-0.38-0.89-0.57-1.57-0.57
		c-0.49,0-0.94,0.09-1.37,0.28c-0.09,0.04-0.18,0.08-0.27,0.13c-0.64,0.33-1.4,0.03-1.7-0.69v0c0.55-0.43,1.12-0.75,1.7-0.97
		c0.58-0.22,1.2-0.33,1.84-0.33c1.16,0,2.07,0.34,2.73,1.03c0.66,0.69,0.99,1.66,0.99,2.92v3.62c0,0.24,0.04,0.4,0.12,0.5
		c0.08,0.1,0.2,0.15,0.38,0.17v1.18c0,0.28-0.19,0.52-0.44,0.54l0,0c-0.13,0.01-0.23,0.02-0.32,0.04c-0.4-0.01-0.7-0.12-0.89-0.34
		c-0.2-0.21-0.31-0.46-0.35-0.75l-0.05-0.56c-0.36,0.55-0.84,0.98-1.43,1.28c-0.59,0.3-1.18,0.45-1.78,0.45
		c-0.57,0-1.09-0.13-1.54-0.4c-0.45-0.27-0.81-0.63-1.06-1.09C526.32,487.38,526.19,486.87,526.19,486.3z M531.7,486.9
		C531.7,486.9,531.7,486.9,531.7,486.9c0.12-0.17,0.22-0.34,0.31-0.5c0.08-0.16,0.12-0.31,0.12-0.44v-1.09
		c-0.31-0.14-0.63-0.24-0.98-0.3c-0.34-0.07-0.67-0.1-0.99-0.1c-0.67,0-1.22,0.15-1.63,0.44c-0.41,0.3-0.62,0.7-0.62,1.22
		c0,0.28,0.07,0.55,0.21,0.8c0.14,0.25,0.34,0.46,0.6,0.63c0.26,0.17,0.58,0.25,0.95,0.25c0.41,0,0.79-0.09,1.16-0.27
		C531.19,487.36,531.48,487.15,531.7,486.9z"/>
	<path class="st25" d="M542.11,489.14L542.11,489.14v-5.44c0-0.92-0.13-1.58-0.4-1.99c-0.26-0.41-0.65-0.62-1.16-0.62
		c-0.35,0-0.7,0.1-1.05,0.3c-0.35,0.2-0.66,0.47-0.93,0.8c-0.27,0.33-0.47,0.72-0.6,1.16v3.72c0,1.14-0.82,2.06-1.82,2.06l0,0v-7.86
		c0-1.04,0.74-1.88,1.65-1.88l0,0v1.95c0.22-0.43,0.51-0.81,0.86-1.12c0.35-0.31,0.76-0.55,1.21-0.72c0.45-0.17,0.93-0.26,1.44-0.26
		c0.52,0,0.95,0.11,1.29,0.32c0.34,0.21,0.61,0.5,0.79,0.86c0.19,0.37,0.32,0.79,0.4,1.26c0.08,0.48,0.12,0.98,0.12,1.52v3.89
		C543.91,488.22,543.11,489.14,542.11,489.14z"/>
	<path class="st25" d="M549.95,489.33c-0.67,0-1.28-0.13-1.83-0.4c-0.55-0.27-1.02-0.64-1.41-1.12c-0.4-0.48-0.7-1.02-0.92-1.63
		c-0.22-0.61-0.32-1.25-0.32-1.92c0-0.92,0.18-1.76,0.55-2.52c0.36-0.76,0.89-1.37,1.56-1.82c0.68-0.45,1.47-0.68,2.37-0.68
		c0.88,0,1.65,0.22,2.31,0.67c0.66,0.44,1.14,1.04,1.46,1.77l-0.14,0.05c-0.83,0.29-1.71,0.13-2.46-0.37c0,0-0.01,0-0.01-0.01
		c-0.35-0.23-0.75-0.35-1.19-0.35c-0.49,0-0.92,0.14-1.32,0.42c-0.39,0.28-0.7,0.66-0.93,1.15c-0.23,0.49-0.34,1.05-0.34,1.69
		c0,0.63,0.12,1.19,0.35,1.68c0.23,0.49,0.55,0.88,0.94,1.17c0.4,0.29,0.83,0.43,1.31,0.43c0.3,0,0.58-0.06,0.86-0.18
		c0.28-0.12,0.52-0.28,0.74-0.5l0.01-0.01c0.38-0.38,0.91-0.51,1.4-0.34l0.82,0.29c-0.19,0.48-0.46,0.9-0.83,1.28
		c-0.36,0.38-0.8,0.67-1.31,0.89C551.12,489.22,550.56,489.33,549.95,489.33z"/>
	<path class="st25" d="M559.12,489.33c-0.68,0-1.3-0.13-1.84-0.4c-0.54-0.27-1.01-0.63-1.41-1.1c-0.4-0.47-0.7-1-0.92-1.6
		s-0.32-1.24-0.32-1.91c0-0.93,0.19-1.78,0.56-2.54c0.37-0.77,0.9-1.38,1.58-1.84c0.68-0.46,1.46-0.69,2.34-0.69
		c0.92,0,1.7,0.23,2.36,0.7c0.66,0.46,1.17,1.07,1.53,1.83c0.36,0.76,0.55,1.57,0.55,2.43c0,0.15-0.01,0.29-0.02,0.42c0,0,0,0,0,0
		c-0.01,0.17-0.14,0.3-0.3,0.3h-6.69c0.06,0.58,0.2,1.08,0.45,1.51c0.24,0.43,0.56,0.76,0.94,1c0.39,0.24,0.79,0.36,1.22,0.36
		c0.5,0,0.96-0.14,1.4-0.41c0.09-0.05,0.17-0.11,0.24-0.17c0.63-0.52,1.45-0.65,2.2-0.41l0,0c-0.19,0.48-0.47,0.9-0.86,1.29
		c-0.39,0.38-0.84,0.68-1.35,0.9C560.29,489.22,559.73,489.33,559.12,489.33z M556.52,483.58h5.23c-0.04-0.56-0.19-1.05-0.42-1.47
		c-0.24-0.42-0.55-0.75-0.94-0.98c-0.39-0.24-0.81-0.36-1.26-0.36c-0.46,0-0.89,0.12-1.27,0.36c-0.38,0.24-0.69,0.57-0.93,0.98
		C556.7,482.53,556.56,483.02,556.52,483.58z"/>
</g>
<g>
	<g>
		<path class="st17" d="M523.47,697.82l0-0.34l-6.43,0.06l-0.27,0c-1.34,0.01-2.42,1.26-2.41,2.78l0,0l0.02,2.88l0.02,2.82l0.04,5.7
			h0c1.49-0.01,2.69-1.4,2.68-3.09l-0.02-2.64l1.78-0.02c1.37-0.01,2.48-1.29,2.47-2.84l0,0l-4.27,0.04l-0.02-2.88l4.3-0.04
			C522.54,700.24,523.48,699.15,523.47,697.82z"/>
		<path class="st17" d="M520.67,700.33h-3.58l0,0c0-1.55,1.25-2.8,2.8-2.8h3.58l0,0C523.47,699.08,522.22,700.33,520.67,700.33z"/>
		<path class="st17" d="M518.47,705.99h-1.38l0,0c0-1.55,1.25-2.8,2.8-2.8h1.38l0,0C521.27,704.74,520.01,705.99,518.47,705.99z"/>
	</g>
	<path class="st17" d="M524.01,697.54L524.01,697.54c1.01,0,1.82,0.92,1.82,2.06v8.86c0,0.49,0.07,0.81,0.2,0.95
		c0.13,0.14,0.3,0.22,0.5,0.22c0.21,0,0.42-0.03,0.62-0.09l0,0c0.27-0.08,0.55,0.11,0.6,0.43l0.17,1.02
		c-0.26,0.13-0.58,0.23-0.94,0.32c-0.36,0.09-0.69,0.13-0.98,0.13c-0.63,0-1.12-0.2-1.46-0.59c-0.35-0.4-0.52-0.94-0.52-1.65V697.54
		z"/>
	<path class="st17" d="M528.34,708.18c0-0.62,0.16-1.16,0.47-1.63c0.31-0.46,0.75-0.82,1.31-1.08c0.56-0.25,1.19-0.38,1.91-0.38
		c0.39,0,0.78,0.03,1.17,0.1c0.4,0.07,0.76,0.17,1.08,0.29v-0.62c0-0.68-0.18-1.21-0.55-1.59c-0.36-0.38-0.89-0.57-1.57-0.57
		c-0.49,0-0.94,0.09-1.37,0.28c-0.09,0.04-0.18,0.08-0.27,0.13c-0.64,0.33-1.4,0.03-1.7-0.69l0,0c0.55-0.43,1.12-0.75,1.7-0.97
		c0.58-0.22,1.2-0.33,1.84-0.33c1.16,0,2.07,0.34,2.73,1.03c0.66,0.69,0.99,1.66,0.99,2.92v3.62c0,0.24,0.04,0.4,0.12,0.5
		c0.08,0.1,0.2,0.15,0.38,0.17v1.18c0,0.28-0.19,0.52-0.44,0.54l0,0c-0.13,0.01-0.23,0.02-0.32,0.04c-0.4-0.01-0.7-0.12-0.89-0.34
		c-0.2-0.21-0.31-0.46-0.35-0.75l-0.05-0.56c-0.36,0.55-0.84,0.98-1.43,1.28c-0.59,0.3-1.18,0.45-1.78,0.45
		c-0.57,0-1.09-0.13-1.54-0.4c-0.45-0.27-0.81-0.63-1.06-1.09C528.47,709.27,528.34,708.75,528.34,708.18z M533.85,708.79
		C533.85,708.79,533.85,708.79,533.85,708.79c0.12-0.17,0.22-0.34,0.31-0.5c0.08-0.16,0.12-0.31,0.12-0.44v-1.09
		c-0.31-0.14-0.63-0.24-0.98-0.3c-0.34-0.07-0.67-0.1-0.99-0.1c-0.67,0-1.22,0.15-1.63,0.44c-0.41,0.3-0.62,0.7-0.62,1.22
		c0,0.28,0.07,0.55,0.21,0.8c0.14,0.25,0.34,0.46,0.6,0.63c0.26,0.17,0.58,0.25,0.95,0.25c0.41,0,0.79-0.09,1.16-0.27
		C533.34,709.25,533.63,709.04,533.85,708.79z"/>
	<path class="st17" d="M544.26,711.03L544.26,711.03v-5.44c0-0.92-0.13-1.58-0.4-1.99c-0.26-0.41-0.65-0.62-1.16-0.62
		c-0.35,0-0.7,0.1-1.05,0.3c-0.35,0.2-0.66,0.47-0.93,0.8c-0.27,0.33-0.47,0.72-0.6,1.16v3.72c0,1.14-0.82,2.06-1.82,2.06l0,0v-7.86
		c0-1.04,0.74-1.88,1.65-1.88l0,0v1.95c0.22-0.43,0.51-0.81,0.86-1.12c0.35-0.31,0.76-0.55,1.21-0.72c0.45-0.17,0.93-0.26,1.44-0.26
		c0.52,0,0.95,0.11,1.29,0.32c0.34,0.21,0.61,0.5,0.79,0.86c0.19,0.37,0.32,0.79,0.4,1.26c0.08,0.48,0.12,0.98,0.12,1.52v3.89
		C546.07,710.11,545.26,711.03,544.26,711.03z"/>
	<path class="st17" d="M552.11,711.22c-0.67,0-1.28-0.13-1.83-0.4c-0.55-0.27-1.02-0.64-1.41-1.12c-0.4-0.48-0.7-1.02-0.92-1.63
		c-0.22-0.61-0.32-1.25-0.32-1.92c0-0.92,0.18-1.76,0.55-2.52c0.36-0.76,0.89-1.37,1.56-1.82c0.68-0.45,1.47-0.68,2.37-0.68
		c0.88,0,1.65,0.22,2.31,0.67c0.66,0.44,1.14,1.04,1.46,1.77l-0.14,0.05c-0.83,0.29-1.71,0.13-2.46-0.37c0,0-0.01,0-0.01-0.01
		c-0.35-0.23-0.75-0.35-1.19-0.35c-0.49,0-0.92,0.14-1.32,0.42c-0.39,0.28-0.7,0.66-0.93,1.15c-0.23,0.49-0.34,1.05-0.34,1.69
		c0,0.63,0.12,1.19,0.35,1.68c0.23,0.49,0.55,0.88,0.94,1.17c0.4,0.29,0.83,0.43,1.31,0.43c0.3,0,0.58-0.06,0.86-0.18
		c0.28-0.12,0.52-0.28,0.74-0.5l0.01-0.01c0.38-0.38,0.91-0.51,1.4-0.34l0.82,0.29c-0.19,0.48-0.46,0.9-0.83,1.28
		c-0.36,0.38-0.8,0.67-1.31,0.89C553.27,711.11,552.71,711.22,552.11,711.22z"/>
	<path class="st17" d="M561.27,711.22c-0.68,0-1.3-0.13-1.84-0.4c-0.54-0.27-1.01-0.63-1.41-1.1c-0.4-0.47-0.7-1-0.92-1.6
		c-0.22-0.6-0.32-1.24-0.32-1.91c0-0.93,0.19-1.78,0.56-2.54c0.37-0.77,0.9-1.38,1.58-1.84s1.46-0.69,2.34-0.69
		c0.92,0,1.7,0.23,2.36,0.7c0.66,0.46,1.17,1.07,1.53,1.83c0.36,0.76,0.55,1.57,0.55,2.43c0,0.15-0.01,0.29-0.02,0.42c0,0,0,0,0,0
		c-0.01,0.17-0.14,0.3-0.3,0.3h-6.69c0.06,0.58,0.2,1.08,0.45,1.51c0.24,0.43,0.56,0.76,0.94,1c0.39,0.24,0.79,0.36,1.22,0.36
		c0.5,0,0.96-0.14,1.4-0.41c0.09-0.05,0.17-0.11,0.24-0.17c0.63-0.52,1.45-0.65,2.2-0.41l0,0c-0.19,0.48-0.47,0.9-0.86,1.29
		c-0.39,0.38-0.84,0.68-1.35,0.9C562.44,711.11,561.88,711.22,561.27,711.22z M558.68,705.47h5.23c-0.04-0.56-0.18-1.05-0.42-1.47
		c-0.24-0.42-0.55-0.75-0.94-0.98c-0.39-0.24-0.81-0.36-1.26-0.36c-0.46,0-0.89,0.12-1.27,0.36c-0.38,0.24-0.69,0.57-0.93,0.98
		C558.85,704.42,558.71,704.91,558.68,705.47z"/>
</g>
<g>
	<g>
		<path class="st25" d="M225.79,475.4l0-0.34l-6.43,0.06l-0.27,0c-1.34,0.01-2.42,1.26-2.41,2.78l0,0l0.02,2.88l0.02,2.82l0.04,5.7
			l0,0c1.49-0.01,2.69-1.4,2.68-3.09l-0.02-2.64l1.78-0.02c1.37-0.01,2.48-1.29,2.47-2.84l0,0l-4.27,0.04l-0.02-2.88l4.3-0.04
			C224.85,477.82,225.8,476.73,225.79,475.4z"/>
		<path class="st25" d="M222.98,477.92h-3.58l0,0c0-1.55,1.25-2.8,2.8-2.8h3.58l0,0C225.79,476.66,224.53,477.92,222.98,477.92z"/>
		<path class="st25" d="M220.78,483.58h-1.38l0,0c0-1.55,1.25-2.8,2.8-2.8h1.38l0,0C223.58,482.32,222.33,483.58,220.78,483.58z"/>
	</g>
	<path class="st25" d="M226.32,475.12L226.32,475.12c1.01,0,1.82,0.92,1.82,2.06v8.86c0,0.49,0.07,0.81,0.2,0.95
		c0.13,0.14,0.3,0.22,0.5,0.22c0.21,0,0.42-0.03,0.62-0.09l0,0c0.27-0.08,0.55,0.11,0.6,0.43l0.17,1.02
		c-0.26,0.13-0.58,0.23-0.94,0.32c-0.36,0.09-0.69,0.13-0.98,0.13c-0.63,0-1.12-0.2-1.46-0.59c-0.35-0.4-0.52-0.94-0.52-1.65V475.12
		z"/>
	<path class="st25" d="M230.65,485.77c0-0.62,0.16-1.16,0.47-1.63c0.31-0.46,0.75-0.82,1.31-1.08c0.56-0.25,1.19-0.38,1.91-0.38
		c0.39,0,0.78,0.03,1.17,0.1c0.4,0.07,0.76,0.17,1.08,0.29v-0.62c0-0.68-0.18-1.21-0.55-1.59c-0.36-0.38-0.89-0.57-1.57-0.57
		c-0.49,0-0.94,0.09-1.37,0.28c-0.09,0.04-0.18,0.08-0.27,0.13c-0.64,0.33-1.4,0.03-1.7-0.69l0,0c0.55-0.43,1.12-0.75,1.7-0.97
		c0.58-0.22,1.2-0.33,1.84-0.33c1.16,0,2.07,0.34,2.73,1.03c0.66,0.69,0.99,1.66,0.99,2.92v3.62c0,0.24,0.04,0.4,0.12,0.5
		c0.08,0.1,0.2,0.15,0.38,0.17v1.18c0,0.28-0.19,0.52-0.44,0.54l0,0c-0.13,0.01-0.23,0.02-0.32,0.04c-0.4-0.01-0.7-0.12-0.89-0.34
		c-0.2-0.21-0.31-0.46-0.35-0.75l-0.05-0.56c-0.36,0.55-0.84,0.98-1.43,1.28c-0.59,0.3-1.18,0.45-1.78,0.45
		c-0.57,0-1.09-0.13-1.54-0.4c-0.45-0.27-0.81-0.63-1.06-1.09C230.78,486.85,230.65,486.34,230.65,485.77z M236.16,486.37
		C236.16,486.37,236.16,486.37,236.16,486.37c0.12-0.17,0.22-0.34,0.31-0.5c0.08-0.16,0.12-0.31,0.12-0.44v-1.09
		c-0.31-0.14-0.63-0.24-0.98-0.3c-0.34-0.07-0.67-0.1-0.99-0.1c-0.67,0-1.22,0.15-1.63,0.44s-0.62,0.7-0.62,1.22
		c0,0.28,0.07,0.55,0.21,0.8c0.14,0.25,0.34,0.46,0.6,0.63c0.26,0.17,0.58,0.25,0.95,0.25c0.41,0,0.79-0.09,1.16-0.27
		C235.65,486.83,235.94,486.62,236.16,486.37z"/>
	<path class="st25" d="M246.57,488.61L246.57,488.61v-5.44c0-0.92-0.13-1.58-0.4-1.99c-0.26-0.41-0.65-0.62-1.16-0.62
		c-0.35,0-0.7,0.1-1.05,0.3c-0.35,0.2-0.66,0.47-0.93,0.8c-0.27,0.33-0.47,0.72-0.6,1.16v3.72c0,1.14-0.82,2.06-1.82,2.06l0,0v-7.86
		c0-1.04,0.74-1.88,1.65-1.88l0,0v1.95c0.22-0.43,0.51-0.81,0.86-1.12c0.35-0.31,0.76-0.55,1.21-0.72c0.45-0.17,0.93-0.26,1.44-0.26
		c0.52,0,0.95,0.11,1.29,0.32c0.34,0.21,0.61,0.5,0.79,0.86c0.19,0.37,0.32,0.79,0.4,1.26c0.08,0.48,0.12,0.98,0.12,1.52v3.89
		C248.38,487.69,247.57,488.61,246.57,488.61z"/>
	<path class="st25" d="M254.42,488.8c-0.67,0-1.28-0.13-1.83-0.4c-0.55-0.27-1.02-0.64-1.41-1.12c-0.4-0.48-0.7-1.02-0.92-1.63
		c-0.22-0.61-0.32-1.25-0.32-1.92c0-0.92,0.18-1.76,0.55-2.52c0.36-0.76,0.89-1.37,1.56-1.82c0.68-0.45,1.47-0.68,2.37-0.68
		c0.88,0,1.65,0.22,2.31,0.67c0.66,0.44,1.14,1.04,1.46,1.77l-0.14,0.05c-0.83,0.29-1.71,0.13-2.46-0.37c0,0-0.01,0-0.01-0.01
		c-0.35-0.23-0.75-0.35-1.19-0.35c-0.49,0-0.92,0.14-1.32,0.42c-0.39,0.28-0.7,0.66-0.93,1.15c-0.23,0.49-0.34,1.05-0.34,1.69
		c0,0.63,0.12,1.19,0.35,1.68c0.23,0.49,0.55,0.88,0.94,1.17c0.4,0.29,0.83,0.43,1.31,0.43c0.3,0,0.58-0.06,0.86-0.18
		c0.28-0.12,0.52-0.28,0.74-0.5l0.01-0.01c0.38-0.38,0.91-0.51,1.4-0.34l0.82,0.29c-0.19,0.48-0.46,0.9-0.83,1.28
		c-0.36,0.38-0.8,0.67-1.31,0.89C255.58,488.69,255.02,488.8,254.42,488.8z"/>
	<path class="st25" d="M263.59,488.8c-0.68,0-1.3-0.13-1.84-0.4c-0.54-0.27-1.01-0.63-1.41-1.1c-0.4-0.47-0.7-1-0.92-1.6
		c-0.22-0.6-0.32-1.24-0.32-1.91c0-0.93,0.19-1.78,0.56-2.54c0.37-0.77,0.9-1.38,1.58-1.84s1.46-0.69,2.34-0.69
		c0.92,0,1.7,0.23,2.36,0.7c0.66,0.46,1.17,1.07,1.53,1.83c0.36,0.76,0.55,1.57,0.55,2.43c0,0.15-0.01,0.29-0.02,0.42c0,0,0,0,0,0
		c-0.01,0.17-0.14,0.3-0.3,0.3h-6.69c0.06,0.58,0.2,1.08,0.45,1.51c0.24,0.43,0.56,0.76,0.94,1c0.39,0.24,0.79,0.36,1.22,0.36
		c0.5,0,0.96-0.14,1.4-0.41c0.09-0.05,0.17-0.11,0.24-0.17c0.63-0.52,1.45-0.65,2.2-0.41l0,0c-0.19,0.48-0.47,0.9-0.86,1.29
		c-0.39,0.38-0.84,0.68-1.35,0.9C264.75,488.69,264.19,488.8,263.59,488.8z M260.99,483.05h5.23c-0.04-0.56-0.18-1.05-0.42-1.47
		c-0.24-0.42-0.55-0.75-0.94-0.98c-0.39-0.24-0.81-0.36-1.26-0.36c-0.46,0-0.89,0.12-1.27,0.36c-0.38,0.24-0.69,0.57-0.93,0.98
		C261.16,482,261.02,482.49,260.99,483.05z"/>
</g>
<g>
	<g>
		<path class="st17" d="M225.79,696.94l0-0.34l-6.43,0.06l-0.27,0c-1.34,0.01-2.42,1.26-2.41,2.78l0,0l0.02,2.88l0.02,2.82l0.04,5.7
			l0,0c1.49-0.01,2.69-1.4,2.68-3.09l-0.02-2.64l1.78-0.02c1.37-0.01,2.48-1.29,2.47-2.84v0l-4.27,0.04l-0.02-2.88l4.3-0.04
			C224.85,699.36,225.8,698.27,225.79,696.94z"/>
		<path class="st17" d="M222.98,699.45h-3.58l0,0c0-1.55,1.25-2.8,2.8-2.8h3.58l0,0C225.79,698.2,224.53,699.45,222.98,699.45z"/>
		<path class="st17" d="M220.78,705.12h-1.38l0,0c0-1.55,1.25-2.8,2.8-2.8h1.38l0,0C223.58,703.86,222.33,705.12,220.78,705.12z"/>
	</g>
	<path class="st17" d="M226.32,696.66L226.32,696.66c1.01,0,1.82,0.92,1.82,2.06v8.86c0,0.49,0.07,0.81,0.2,0.95
		c0.13,0.14,0.3,0.22,0.5,0.22c0.21,0,0.42-0.03,0.62-0.09l0,0c0.27-0.08,0.55,0.11,0.6,0.43l0.17,1.02
		c-0.26,0.13-0.58,0.23-0.94,0.32c-0.36,0.09-0.69,0.13-0.98,0.13c-0.63,0-1.12-0.2-1.46-0.59c-0.35-0.4-0.52-0.94-0.52-1.65V696.66
		z"/>
	<path class="st17" d="M230.65,707.31c0-0.62,0.16-1.16,0.47-1.63c0.31-0.46,0.75-0.82,1.31-1.08c0.56-0.25,1.19-0.38,1.91-0.38
		c0.39,0,0.78,0.03,1.17,0.1c0.4,0.07,0.76,0.17,1.08,0.29V704c0-0.68-0.18-1.21-0.55-1.59c-0.36-0.38-0.89-0.57-1.57-0.57
		c-0.49,0-0.94,0.09-1.37,0.28c-0.09,0.04-0.18,0.08-0.27,0.13c-0.64,0.33-1.4,0.03-1.7-0.69l0,0c0.55-0.43,1.12-0.75,1.7-0.97
		c0.58-0.22,1.2-0.33,1.84-0.33c1.16,0,2.07,0.34,2.73,1.03c0.66,0.69,0.99,1.66,0.99,2.92v3.62c0,0.24,0.04,0.4,0.12,0.5
		c0.08,0.1,0.2,0.15,0.38,0.17v1.18c0,0.28-0.19,0.52-0.44,0.54l0,0c-0.13,0.01-0.23,0.02-0.32,0.04c-0.4-0.01-0.7-0.12-0.89-0.34
		c-0.2-0.21-0.31-0.46-0.35-0.75l-0.05-0.56c-0.36,0.55-0.84,0.98-1.43,1.28c-0.59,0.3-1.18,0.45-1.78,0.45
		c-0.57,0-1.09-0.13-1.54-0.4c-0.45-0.27-0.81-0.63-1.06-1.09C230.78,708.39,230.65,707.88,230.65,707.31z M236.16,707.91
		C236.16,707.91,236.16,707.91,236.16,707.91c0.12-0.17,0.22-0.34,0.31-0.5c0.08-0.16,0.12-0.31,0.12-0.44v-1.09
		c-0.31-0.14-0.63-0.24-0.98-0.3c-0.34-0.07-0.67-0.1-0.99-0.1c-0.67,0-1.22,0.15-1.63,0.44c-0.41,0.3-0.62,0.7-0.62,1.22
		c0,0.28,0.07,0.55,0.21,0.8c0.14,0.25,0.34,0.46,0.6,0.63c0.26,0.17,0.58,0.25,0.95,0.25c0.41,0,0.79-0.09,1.16-0.27
		C235.65,708.37,235.94,708.16,236.16,707.91z"/>
	<path class="st17" d="M246.57,710.15L246.57,710.15v-5.44c0-0.92-0.13-1.58-0.4-1.99c-0.26-0.41-0.65-0.62-1.16-0.62
		c-0.35,0-0.7,0.1-1.05,0.3c-0.35,0.2-0.66,0.47-0.93,0.8c-0.27,0.33-0.47,0.72-0.6,1.16v3.72c0,1.14-0.82,2.06-1.82,2.06l0,0v-7.86
		c0-1.04,0.74-1.88,1.65-1.88l0,0v1.95c0.22-0.43,0.51-0.81,0.86-1.12c0.35-0.31,0.76-0.55,1.21-0.72c0.45-0.17,0.93-0.26,1.44-0.26
		c0.52,0,0.95,0.11,1.29,0.32c0.34,0.21,0.61,0.5,0.79,0.86c0.19,0.37,0.32,0.79,0.4,1.26c0.08,0.48,0.12,0.98,0.12,1.52v3.89
		C248.38,709.23,247.57,710.15,246.57,710.15z"/>
	<path class="st17" d="M254.42,710.34c-0.67,0-1.28-0.13-1.83-0.4c-0.55-0.27-1.02-0.64-1.41-1.12c-0.4-0.48-0.7-1.02-0.92-1.63
		c-0.22-0.61-0.32-1.25-0.32-1.92c0-0.92,0.18-1.76,0.55-2.52c0.36-0.76,0.89-1.37,1.56-1.82c0.68-0.45,1.47-0.68,2.37-0.68
		c0.88,0,1.65,0.22,2.31,0.67c0.66,0.44,1.14,1.04,1.46,1.77l-0.14,0.05c-0.83,0.29-1.71,0.13-2.46-0.37c0,0-0.01,0-0.01-0.01
		c-0.35-0.23-0.75-0.35-1.19-0.35c-0.49,0-0.92,0.14-1.32,0.42c-0.39,0.28-0.7,0.66-0.93,1.15c-0.23,0.49-0.34,1.05-0.34,1.69
		c0,0.63,0.12,1.19,0.35,1.68c0.23,0.49,0.55,0.88,0.94,1.17c0.4,0.29,0.83,0.43,1.31,0.43c0.3,0,0.58-0.06,0.86-0.18
		c0.28-0.12,0.52-0.28,0.74-0.5l0.01-0.01c0.38-0.38,0.91-0.51,1.4-0.34l0.82,0.29c-0.19,0.48-0.46,0.9-0.83,1.28
		c-0.36,0.38-0.8,0.67-1.31,0.89C255.58,710.23,255.02,710.34,254.42,710.34z"/>
	<path class="st17" d="M263.59,710.34c-0.68,0-1.3-0.13-1.84-0.4c-0.54-0.27-1.01-0.63-1.41-1.1c-0.4-0.47-0.7-1-0.92-1.6
		c-0.22-0.6-0.32-1.24-0.32-1.91c0-0.93,0.19-1.78,0.56-2.54c0.37-0.77,0.9-1.38,1.58-1.84s1.46-0.69,2.34-0.69
		c0.92,0,1.7,0.23,2.36,0.7c0.66,0.46,1.17,1.07,1.53,1.83c0.36,0.76,0.55,1.57,0.55,2.43c0,0.15-0.01,0.29-0.02,0.42c0,0,0,0,0,0
		c-0.01,0.17-0.14,0.3-0.3,0.3h-6.69c0.06,0.58,0.2,1.08,0.45,1.51c0.24,0.43,0.56,0.76,0.94,1c0.39,0.24,0.79,0.36,1.22,0.36
		c0.5,0,0.96-0.14,1.4-0.41c0.09-0.05,0.17-0.11,0.24-0.17c0.63-0.52,1.45-0.65,2.2-0.41l0,0c-0.19,0.48-0.47,0.9-0.86,1.29
		c-0.39,0.38-0.84,0.68-1.35,0.9C264.75,710.23,264.19,710.34,263.59,710.34z M260.99,704.59h5.23c-0.04-0.56-0.18-1.05-0.42-1.47
		c-0.24-0.42-0.55-0.75-0.94-0.98c-0.39-0.24-0.81-0.36-1.26-0.36c-0.46,0-0.89,0.12-1.27,0.36c-0.38,0.24-0.69,0.57-0.93,0.98
		C261.16,703.54,261.02,704.03,260.99,704.59z"/>
</g>
<g>
	<path class="st25" d="M186.71,359.09l-0.02-2.52L133.23,357l-2.25,0.02c-11.17,0.09-20.15,9.21-20.06,20.38l0,0l0.17,21.12
		l0.17,20.67l0.34,41.79h0c12.41-0.1,22.38-10.24,22.29-22.65L133.72,419l14.83-0.12c11.41-0.09,20.59-9.42,20.5-20.83v0l-35.5,0.29
		l-0.17-21.12l35.77-0.29C178.93,376.85,186.79,368.86,186.71,359.09z"/>
	<path class="st26" d="M166.17,377.54h-32.53v0c0-11.35,9.2-20.54,20.54-20.54h32.53v0C186.72,368.34,177.52,377.54,166.17,377.54z"
		/>
	<path class="st26" d="M147.84,419.03h-14.2v-4.67c0-8.77,7.11-15.87,15.87-15.87h18.87v0
		C168.38,409.83,159.19,419.03,147.84,419.03z"/>
</g>
<g>
	<path class="st25" d="M481.65,355.5l-0.02-2.52l-53.47,0.43l-2.25,0.02c-11.17,0.09-20.15,9.21-20.06,20.38v0l0.17,21.12
		l0.17,20.67l0.34,41.79h0c12.41-0.1,22.38-10.24,22.29-22.65l-0.16-19.32l14.83-0.12c11.41-0.09,20.59-9.42,20.5-20.83l0,0
		l-35.5,0.29l-0.17-21.12l35.77-0.29C473.87,373.27,481.73,365.28,481.65,355.5z"/>
	<path class="st26" d="M461.11,373.96h-32.53l0,0c0-11.35,9.2-20.54,20.54-20.54h32.53v0C481.65,364.76,472.46,373.96,461.11,373.96
		z"/>
	<path class="st26" d="M442.78,415.45h-14.2v-4.67c0-8.77,7.11-15.87,15.87-15.87h18.87v0
		C463.32,406.25,454.13,415.45,442.78,415.45z"/>
</g>
<g>
	<path class="st17" d="M186.71,572.66l-0.02-2.52l-53.47,0.43l-2.25,0.02c-11.17,0.09-20.15,9.21-20.06,20.38l0,0l0.17,21.12
		l0.17,20.67l0.34,41.79h0c12.41-0.1,22.38-10.24,22.29-22.65l-0.16-19.32l14.83-0.12c11.41-0.09,20.59-9.42,20.5-20.83l0,0
		l-35.5,0.29l-0.17-21.12l35.77-0.29C178.93,590.42,186.79,582.44,186.71,572.66z"/>
	
		<linearGradient id="SVGID_00000078042159871263732380000009755073086679496113_" gradientUnits="userSpaceOnUse" x1="133.6429" y1="580.8434" x2="186.7153" y2="580.8434">
		<stop  offset="0" style="stop-color:#9933FF"/>
		<stop  offset="1" style="stop-color:#CC66FF"/>
	</linearGradient>
	<path style="fill:url(#SVGID_00000078042159871263732380000009755073086679496113_);" d="M166.17,591.11h-32.53v0
		c0-11.35,9.2-20.54,20.54-20.54h32.53l0,0C186.72,581.92,177.52,591.11,166.17,591.11z"/>
	
		<linearGradient id="SVGID_00000181082015095461488750000006758564238430428059_" gradientUnits="userSpaceOnUse" x1="133.6429" y1="622.334" x2="168.3838" y2="622.334">
		<stop  offset="0" style="stop-color:#9933FF"/>
		<stop  offset="1" style="stop-color:#CC66FF"/>
	</linearGradient>
	<path style="fill:url(#SVGID_00000181082015095461488750000006758564238430428059_);" d="M147.84,632.61h-14.2v-4.67
		c0-8.77,7.11-15.87,15.87-15.87h18.87v0C168.38,623.41,159.19,632.61,147.84,632.61z"/>
</g>
<g>
	<path class="st17" d="M484.35,575.63l-0.02-2.52l-53.47,0.43l-2.25,0.02c-11.17,0.09-20.15,9.21-20.06,20.38l0,0l0.17,21.12
		l0.17,20.67l0.34,41.79h0c12.41-0.1,22.38-10.24,22.29-22.65l-0.16-19.32l14.83-0.12c11.41-0.09,20.59-9.42,20.5-20.83v0
		l-35.5,0.29l-0.17-21.12l35.77-0.29C476.57,593.39,484.43,585.41,484.35,575.63z"/>
	
		<linearGradient id="SVGID_00000126325747297761726140000002684268096809151887_" gradientUnits="userSpaceOnUse" x1="431.2807" y1="583.812" x2="484.3531" y2="583.812">
		<stop  offset="0" style="stop-color:#9933FF"/>
		<stop  offset="1" style="stop-color:#CC66FF"/>
	</linearGradient>
	<path style="fill:url(#SVGID_00000126325747297761726140000002684268096809151887_);" d="M463.81,594.08h-32.53l0,0
		c0-11.35,9.2-20.54,20.54-20.54h32.53v0C484.35,584.89,475.16,594.08,463.81,594.08z"/>
	
		<linearGradient id="SVGID_00000183939564157907483460000014680064628017410947_" gradientUnits="userSpaceOnUse" x1="431.2807" y1="625.3027" x2="466.0215" y2="625.3027">
		<stop  offset="0" style="stop-color:#9933FF"/>
		<stop  offset="1" style="stop-color:#CC66FF"/>
	</linearGradient>
	<path style="fill:url(#SVGID_00000183939564157907483460000014680064628017410947_);" d="M445.48,635.57h-14.2v-4.67
		c0-8.77,7.11-15.87,15.87-15.87h18.87l0,0C466.02,626.38,456.82,635.57,445.48,635.57z"/>
</g>
<path class="st1" d="M492.71,1041.12L492.71,1041.12c-27.22-8.05-42.75-36.63-34.71-63.85v0c8.05-27.22,36.63-42.75,63.85-34.71l0,0
	c27.22,8.05,42.75,36.63,34.71,63.85v0C548.51,1033.63,519.92,1049.17,492.71,1041.12z"/>
<path class="st12" d="M471.99,996.5l-5.48-1.62c-27.22-8.05-42.75-36.63-34.71-63.85l1.62-5.48c8.05-27.22,36.63-42.75,63.85-34.71
	l5.48,1.62c27.22,8.05,42.75,36.63,34.71,63.85l-1.62,5.48C527.79,989,499.21,1004.54,471.99,996.5z"/>
</svg>
